<svg xmlns="http://www.w3.org/2000/svg" viewBox="0 0 1280 880" width="1280" height="880" role="img" aria-label="Gorakh — Engineering Manager and Cloud Architect">
<title>Gorakh — portfolio dashboard</title>
<defs>
<style type="text/css"><![CDATA[
.mono{font-family:'SFMono-Regular',Consolas,Menlo,monospace}
.sans{font-family:'Segoe UI',Helvetica,Arial,sans-serif}
.script{font-family:'Segoe Script','Bradley Hand','Comic Sans MS',cursive}
@keyframes rise{from{opacity:0;transform:translateY(14px)}to{opacity:1;transform:translateY(0)}}
@keyframes fadeIn{from{opacity:0}to{opacity:1}}
@keyframes cellIn{from{opacity:0;transform:scale(.4)}to{opacity:1;transform:scale(1)}}
@keyframes ringDraw{to{stroke-dashoffset:var(--off)}}
@keyframes pulse{0%,100%{opacity:1}50%{opacity:.3}}
@keyframes sunGlow{0%,100%{opacity:.55}50%{opacity:.85}}
@keyframes flow{to{stroke-dashoffset:-24}}
@keyframes twinkle{0%,100%{opacity:1}50%{opacity:.15}}
@keyframes screenFlicker{0%,100%{opacity:.9}45%{opacity:1}50%{opacity:.75}55%{opacity:1}}
@keyframes floaty{0%,100%{transform:translateY(0)}50%{transform:translateY(-5px)}}
.rise{opacity:0;animation:rise .8s cubic-bezier(.2,.7,.3,1) forwards}
.fade{opacity:0;animation:fadeIn 1s ease forwards}
.cell{opacity:0;animation:cellIn .5s ease forwards;transform-box:fill-box;transform-origin:center}
.edge{stroke-dasharray:5 7;animation:flow 1.5s linear infinite}
]]></style>
<linearGradient id="name" x1="0" y1="0" x2="1" y2="0">
  <stop offset="0%" stop-color="#fb923c"/><stop offset="45%" stop-color="#f472b6"/><stop offset="100%" stop-color="#a855f7"/>
</linearGradient>
<linearGradient id="sky" x1="0" y1="0" x2="0" y2="1">
  <stop offset="0%" stop-color="#1b1038"/><stop offset="38%" stop-color="#4c1d6e"/><stop offset="62%" stop-color="#b83a7c"/><stop offset="82%" stop-color="#f97316"/><stop offset="100%" stop-color="#fbbf24"/>
</linearGradient>
<linearGradient id="btn" x1="0" y1="0" x2="1" y2="0">
  <stop offset="0%" stop-color="#f97316"/><stop offset="100%" stop-color="#ec4899"/>
</linearGradient>
<radialGradient id="sun" cx="50%" cy="50%" r="50%">
  <stop offset="0%" stop-color="#fff7ed"/><stop offset="35%" stop-color="#fbbf24"/><stop offset="100%" stop-color="#fbbf24" stop-opacity="0"/>
</radialGradient>
<clipPath id="scene"><rect x="0" y="0" width="368" height="322" rx="18"/></clipPath>
<filter id="glow"><feGaussianBlur stdDeviation="2.5" result="b"/><feMerge><feMergeNode in="b"/><feMergeNode in="SourceGraphic"/></feMerge></filter>
</defs>

<rect width="1280" height="880" rx="22" fill="#0d0a1a"/>

<!-- ═══════════ ROW 1 ═══════════ -->
<!-- LEFT: identity -->
<g class="rise" style="animation-delay:.1s"><text x="28" y="62" class="sans" font-size="22" fill="#b7a8d9">Hello, I&#8217;m &#128075;</text></g>
<g class="rise" style="animation-delay:.3s"><text x="24" y="140" class="sans" font-size="78" font-weight="800" fill="url(#name)" letter-spacing="-1">Gorakh</text></g>
<g class="rise" style="animation-delay:.55s"><text x="28" y="176" class="sans" font-size="17.5" font-weight="700" fill="#fb923c">Engineering Manager &amp; Cloud Architect</text></g>
<g class="rise" style="animation-delay:.75s">
  <text x="28" y="202" class="sans" font-size="13.5" fill="#8a7cb0">Building scalable systems, leading amazing teams, and</text>
  <text x="28" y="221" class="sans" font-size="13.5" fill="#8a7cb0">shipping products that matter.</text>
</g>
<g class="rise" style="animation-delay:.95s">
  <rect x="28" y="242" width="128" height="38" rx="10" fill="url(#btn)"/>
  <text x="83" y="266" text-anchor="middle" class="sans" font-size="13.5" font-weight="700" fill="#fff">View My Work &#8599;</text>
  <rect x="168" y="242" width="150" height="38" rx="10" fill="none" stroke="#6d5a96"/>
  <text x="243" y="266" text-anchor="middle" class="sans" font-size="13.5" fill="#c9b8ef">Download Resume &#8615;</text>
</g>
<g class="rise" style="animation-delay:1.15s">
  <circle cx="36" cy="306" r="4" fill="#fb923c" style="animation:pulse 2s infinite"/>
  <text x="48" y="310" class="mono" font-size="11.5" fill="#8a7cb0">Currently Building</text>
  <rect x="28" y="320" width="348" height="30" rx="8" fill="#171129" stroke="#2b2148"/>
  <text x="40" y="340" class="mono" font-size="11.5" fill="#c9b8ef">AI Agent Platform with RAG &amp; LLM Eval Frameworks</text>
</g>

<!-- CENTER: sunset scene -->
<g transform="translate(400,26)" class="fade" style="animation-delay:.4s">
  <g clip-path="url(#scene)">
    <rect width="368" height="322" fill="url(#sky)"/>
    <!-- stars -->
    <circle cx="40" cy="34" r="1.6" fill="#fff" style="animation:twinkle 2.8s infinite"/>
    <circle cx="120" cy="22" r="1.3" fill="#fff" style="animation:twinkle 3.6s infinite .5s"/>
    <circle cx="210" cy="40" r="1.5" fill="#fff" style="animation:twinkle 3.1s infinite 1s"/>
    <circle cx="300" cy="26" r="1.4" fill="#fff" style="animation:twinkle 2.5s infinite 1.4s"/>
    <circle cx="340" cy="60" r="1.2" fill="#fff" style="animation:twinkle 3.9s infinite .8s"/>
    <!-- sun -->
    <circle cx="184" cy="208" r="86" fill="url(#sun)" style="animation:sunGlow 5s ease-in-out infinite"/>
    <circle cx="184" cy="208" r="34" fill="#fff7ed" opacity=".9"/>
    <!-- far mountains -->
    <path d="M0 232 L64 168 L118 224 L176 160 L238 226 L298 172 L368 236 V322 H0 Z" fill="#3b1d5e" opacity=".85"/>
    <!-- near mountains -->
    <path d="M0 268 L84 204 L150 262 L228 198 L306 264 L368 216 V322 H0 Z" fill="#241040"/>
    <!-- pines -->
    <g fill="#160a2c">
      <path d="M36 268 l10 -22 10 22 Z M40 252 l6 -14 6 14 Z"/>
      <path d="M320 262 l9 -20 9 20 Z M323 248 l6 -13 6 13 Z"/>
    </g>
    <!-- ground -->
    <rect y="286" width="368" height="36" fill="#120724"/>
    <!-- developer silhouette at desk -->
    <g fill="#0c0518">
      <rect x="118" y="268" width="150" height="7" rx="3"/>          <!-- desk -->
      <rect x="126" y="275" width="8" height="34"/>                   <!-- desk leg -->
      <rect x="252" y="275" width="8" height="34"/>
      <circle cx="176" cy="222" r="15"/>                              <!-- head -->
      <path d="M158 268 q2 -28 18 -30 q20 0 22 30 Z"/>                <!-- torso -->
      <path d="M192 246 q16 6 22 18 l-8 6 q-10 -12 -18 -14 Z"/>       <!-- arm -->
      <rect x="150" y="286" width="14" height="24" rx="4"/>           <!-- chair base -->
      <rect x="140" y="306" width="36" height="6" rx="3"/>
    </g>
    <!-- laptop -->
    <g>
      <path d="M212 250 l30 -4 v20 l-30 4 Z" fill="#0c0518"/>
      <path d="M213 251.5 l27 -3.6 v16.4 l-27 3.6 Z" fill="#ffd9a8" style="animation:screenFlicker 4s infinite"/>
      <rect x="206" y="266" width="42" height="4" rx="2" fill="#0c0518"/>
    </g>
    <!-- coffee -->
    <rect x="142" y="258" width="10" height="10" rx="2" fill="#0c0518"/>
  </g>
  <rect width="368" height="322" rx="18" fill="none" stroke="#2b2148" stroke-width="1.5"/>
  <!-- quote -->
  <text x="184" y="66" text-anchor="middle" class="script fade" font-size="16" fill="#ffffff" opacity=".92" style="animation-delay:1.4s" transform="rotate(-3 184 66)">&#8220;Code is not just what I write,</text>
  <text x="196" y="90" text-anchor="middle" class="script fade" font-size="16" fill="#ffffff" opacity=".92" style="animation-delay:1.8s" transform="rotate(-3 196 90)">it&#8217;s what I live.&#8221;</text>
</g>

<!-- RIGHT column -->
<!-- system status -->
<g transform="translate(792,26)" class="rise" style="animation-delay:.5s">
  <rect width="464" height="56" rx="14" fill="#131024" stroke="#2b2148"/>
  <circle cx="26" cy="28" r="5" fill="#34d399" style="animation:pulse 2s infinite"/>
  <text x="42" y="33" class="sans" font-size="14" font-weight="700" fill="#f1e9ff">System Status</text>
  <rect x="308" y="14" width="142" height="28" rx="14" fill="#0d2b1e"/>
  <text x="379" y="33" text-anchor="middle" class="mono" font-size="11" fill="#34d399">All Systems Operational</text>
</g>

<!-- deployment pipeline -->
<g transform="translate(792,96)" class="rise" style="animation-delay:.7s">
  <rect width="464" height="104" rx="14" fill="#131024" stroke="#2b2148"/>
  <text x="22" y="30" class="sans" font-size="14" font-weight="700" fill="#f1e9ff">Deployment Pipeline</text>
  <path d="M56 66 H408" stroke="#2b2148" stroke-width="2" class="edge"/>
  <circle r="4" fill="#fb923c" filter="url(#glow)"><animateMotion dur="4s" repeatCount="indefinite" path="M56 66 H408"/></circle>
  <g class="mono" font-size="10" text-anchor="middle" fill="#8a7cb0">
    <circle cx="56" cy="66" r="15" fill="#1c1633" stroke="#6d5a96"/><text x="56" y="70" font-size="12">&#10094;&#10095;</text><text x="56" y="96">code</text>
    <circle cx="144" cy="66" r="15" fill="#1c1633" stroke="#6d5a96"/><text x="144" y="70" font-size="12">&#9881;</text><text x="144" y="96">test</text>
    <circle cx="232" cy="66" r="15" fill="#1c1633" stroke="#6d5a96"/><text x="232" y="70" font-size="12">&#128230;</text><text x="232" y="96">build</text>
    <circle cx="320" cy="66" r="15" fill="#1c1633" stroke="#6d5a96"/><text x="320" y="70" font-size="12">&#128640;</text><text x="320" y="96">deploy</text>
    <circle cx="408" cy="66" r="15" fill="#0d2b1e" stroke="#34d399"/><text x="408" y="70" font-size="12">&#10003;</text><text x="408" y="96" fill="#34d399">live</text>
  </g>
</g>

<!-- live github activity heatmap -->
<g transform="translate(792,214)" class="rise" style="animation-delay:.9s">
  <rect width="464" height="134" rx="14" fill="#131024" stroke="#2b2148"/>
  <text x="22" y="28" class="sans" font-size="14" font-weight="700" fill="#f1e9ff">Live GitHub Activity</text>
  <text x="442" y="28" text-anchor="end" class="mono" font-size="10.5" fill="#8a7cb0">1,977 this year</text>
  <g transform="translate(22,40)"><rect x="0" y="0" width="13" height="11" rx="2.5" fill="#6d3fa8" class="cell" style="animation-delay:0.8s"/>
<rect x="0" y="15" width="13" height="11" rx="2.5" fill="#1a1430" class="cell" style="animation-delay:0.806s"/>
<rect x="0" y="30" width="13" height="11" rx="2.5" fill="#1a1430" class="cell" style="animation-delay:0.812s"/>
<rect x="0" y="45" width="13" height="11" rx="2.5" fill="#1a1430" class="cell" style="animation-delay:0.818s"/>
<rect x="0" y="60" width="13" height="11" rx="2.5" fill="#a855f7" class="cell" style="animation-delay:0.824s"/>
<rect x="0" y="75" width="13" height="11" rx="2.5" fill="#6d3fa8" class="cell" style="animation-delay:0.83s"/>
<rect x="0" y="90" width="13" height="11" rx="2.5" fill="#fb923c" class="cell" style="animation-delay:0.836s"/>
<rect x="17" y="0" width="13" height="11" rx="2.5" fill="#1a1430" class="cell" style="animation-delay:0.842s"/>
<rect x="17" y="15" width="13" height="11" rx="2.5" fill="#3b2a63" class="cell" style="animation-delay:0.848s"/>
<rect x="17" y="30" width="13" height="11" rx="2.5" fill="#1a1430" class="cell" style="animation-delay:0.854s"/>
<rect x="17" y="45" width="13" height="11" rx="2.5" fill="#1a1430" class="cell" style="animation-delay:0.86s"/>
<rect x="17" y="60" width="13" height="11" rx="2.5" fill="#6d3fa8" class="cell" style="animation-delay:0.866s"/>
<rect x="17" y="75" width="13" height="11" rx="2.5" fill="#1a1430" class="cell" style="animation-delay:0.872s"/>
<rect x="17" y="90" width="13" height="11" rx="2.5" fill="#1a1430" class="cell" style="animation-delay:0.878s"/>
<rect x="34" y="0" width="13" height="11" rx="2.5" fill="#6d3fa8" class="cell" style="animation-delay:0.884s"/>
<rect x="34" y="15" width="13" height="11" rx="2.5" fill="#6d3fa8" class="cell" style="animation-delay:0.89s"/>
<rect x="34" y="30" width="13" height="11" rx="2.5" fill="#1a1430" class="cell" style="animation-delay:0.896s"/>
<rect x="34" y="45" width="13" height="11" rx="2.5" fill="#6d3fa8" class="cell" style="animation-delay:0.902s"/>
<rect x="34" y="60" width="13" height="11" rx="2.5" fill="#a855f7" class="cell" style="animation-delay:0.908s"/>
<rect x="34" y="75" width="13" height="11" rx="2.5" fill="#1a1430" class="cell" style="animation-delay:0.914s"/>
<rect x="34" y="90" width="13" height="11" rx="2.5" fill="#a855f7" class="cell" style="animation-delay:0.92s"/>
<rect x="51" y="0" width="13" height="11" rx="2.5" fill="#a855f7" class="cell" style="animation-delay:0.926s"/>
<rect x="51" y="15" width="13" height="11" rx="2.5" fill="#3b2a63" class="cell" style="animation-delay:0.932s"/>
<rect x="51" y="30" width="13" height="11" rx="2.5" fill="#1a1430" class="cell" style="animation-delay:0.938s"/>
<rect x="51" y="45" width="13" height="11" rx="2.5" fill="#fbbf24" class="cell" style="animation-delay:0.944s"/>
<rect x="51" y="60" width="13" height="11" rx="2.5" fill="#3b2a63" class="cell" style="animation-delay:0.95s"/>
<rect x="51" y="75" width="13" height="11" rx="2.5" fill="#1a1430" class="cell" style="animation-delay:0.956s"/>
<rect x="51" y="90" width="13" height="11" rx="2.5" fill="#1a1430" class="cell" style="animation-delay:0.962s"/>
<rect x="68" y="0" width="13" height="11" rx="2.5" fill="#fb923c" class="cell" style="animation-delay:0.968s"/>
<rect x="68" y="15" width="13" height="11" rx="2.5" fill="#6d3fa8" class="cell" style="animation-delay:0.974s"/>
<rect x="68" y="30" width="13" height="11" rx="2.5" fill="#a855f7" class="cell" style="animation-delay:0.98s"/>
<rect x="68" y="45" width="13" height="11" rx="2.5" fill="#a855f7" class="cell" style="animation-delay:0.986s"/>
<rect x="68" y="60" width="13" height="11" rx="2.5" fill="#6d3fa8" class="cell" style="animation-delay:0.992s"/>
<rect x="68" y="75" width="13" height="11" rx="2.5" fill="#fbbf24" class="cell" style="animation-delay:0.998s"/>
<rect x="68" y="90" width="13" height="11" rx="2.5" fill="#3b2a63" class="cell" style="animation-delay:1.004s"/>
<rect x="85" y="0" width="13" height="11" rx="2.5" fill="#6d3fa8" class="cell" style="animation-delay:1.01s"/>
<rect x="85" y="15" width="13" height="11" rx="2.5" fill="#fb923c" class="cell" style="animation-delay:1.016s"/>
<rect x="85" y="30" width="13" height="11" rx="2.5" fill="#6d3fa8" class="cell" style="animation-delay:1.022s"/>
<rect x="85" y="45" width="13" height="11" rx="2.5" fill="#fb923c" class="cell" style="animation-delay:1.028s"/>
<rect x="85" y="60" width="13" height="11" rx="2.5" fill="#6d3fa8" class="cell" style="animation-delay:1.034s"/>
<rect x="85" y="75" width="13" height="11" rx="2.5" fill="#a855f7" class="cell" style="animation-delay:1.04s"/>
<rect x="85" y="90" width="13" height="11" rx="2.5" fill="#1a1430" class="cell" style="animation-delay:1.046s"/>
<rect x="102" y="0" width="13" height="11" rx="2.5" fill="#1a1430" class="cell" style="animation-delay:1.052s"/>
<rect x="102" y="15" width="13" height="11" rx="2.5" fill="#1a1430" class="cell" style="animation-delay:1.058s"/>
<rect x="102" y="30" width="13" height="11" rx="2.5" fill="#1a1430" class="cell" style="animation-delay:1.064s"/>
<rect x="102" y="45" width="13" height="11" rx="2.5" fill="#1a1430" class="cell" style="animation-delay:1.07s"/>
<rect x="102" y="60" width="13" height="11" rx="2.5" fill="#1a1430" class="cell" style="animation-delay:1.076s"/>
<rect x="102" y="75" width="13" height="11" rx="2.5" fill="#1a1430" class="cell" style="animation-delay:1.082s"/>
<rect x="102" y="90" width="13" height="11" rx="2.5" fill="#6d3fa8" class="cell" style="animation-delay:1.088s"/>
<rect x="119" y="0" width="13" height="11" rx="2.5" fill="#3b2a63" class="cell" style="animation-delay:1.094s"/>
<rect x="119" y="15" width="13" height="11" rx="2.5" fill="#3b2a63" class="cell" style="animation-delay:1.1s"/>
<rect x="119" y="30" width="13" height="11" rx="2.5" fill="#1a1430" class="cell" style="animation-delay:1.106s"/>
<rect x="119" y="45" width="13" height="11" rx="2.5" fill="#1a1430" class="cell" style="animation-delay:1.112s"/>
<rect x="119" y="60" width="13" height="11" rx="2.5" fill="#fb923c" class="cell" style="animation-delay:1.118s"/>
<rect x="119" y="75" width="13" height="11" rx="2.5" fill="#6d3fa8" class="cell" style="animation-delay:1.124s"/>
<rect x="119" y="90" width="13" height="11" rx="2.5" fill="#6d3fa8" class="cell" style="animation-delay:1.13s"/>
<rect x="136" y="0" width="13" height="11" rx="2.5" fill="#1a1430" class="cell" style="animation-delay:1.136s"/>
<rect x="136" y="15" width="13" height="11" rx="2.5" fill="#a855f7" class="cell" style="animation-delay:1.142s"/>
<rect x="136" y="30" width="13" height="11" rx="2.5" fill="#1a1430" class="cell" style="animation-delay:1.148s"/>
<rect x="136" y="45" width="13" height="11" rx="2.5" fill="#3b2a63" class="cell" style="animation-delay:1.154s"/>
<rect x="136" y="60" width="13" height="11" rx="2.5" fill="#fbbf24" class="cell" style="animation-delay:1.16s"/>
<rect x="136" y="75" width="13" height="11" rx="2.5" fill="#6d3fa8" class="cell" style="animation-delay:1.166s"/>
<rect x="136" y="90" width="13" height="11" rx="2.5" fill="#6d3fa8" class="cell" style="animation-delay:1.172s"/>
<rect x="153" y="0" width="13" height="11" rx="2.5" fill="#a855f7" class="cell" style="animation-delay:1.178s"/>
<rect x="153" y="15" width="13" height="11" rx="2.5" fill="#fb923c" class="cell" style="animation-delay:1.184s"/>
<rect x="153" y="30" width="13" height="11" rx="2.5" fill="#a855f7" class="cell" style="animation-delay:1.19s"/>
<rect x="153" y="45" width="13" height="11" rx="2.5" fill="#1a1430" class="cell" style="animation-delay:1.196s"/>
<rect x="153" y="60" width="13" height="11" rx="2.5" fill="#1a1430" class="cell" style="animation-delay:1.202s"/>
<rect x="153" y="75" width="13" height="11" rx="2.5" fill="#3b2a63" class="cell" style="animation-delay:1.208s"/>
<rect x="153" y="90" width="13" height="11" rx="2.5" fill="#1a1430" class="cell" style="animation-delay:1.214s"/>
<rect x="170" y="0" width="13" height="11" rx="2.5" fill="#1a1430" class="cell" style="animation-delay:1.22s"/>
<rect x="170" y="15" width="13" height="11" rx="2.5" fill="#fbbf24" class="cell" style="animation-delay:1.226s"/>
<rect x="170" y="30" width="13" height="11" rx="2.5" fill="#fb923c" class="cell" style="animation-delay:1.232s"/>
<rect x="170" y="45" width="13" height="11" rx="2.5" fill="#3b2a63" class="cell" style="animation-delay:1.238s"/>
<rect x="170" y="60" width="13" height="11" rx="2.5" fill="#6d3fa8" class="cell" style="animation-delay:1.244s"/>
<rect x="170" y="75" width="13" height="11" rx="2.5" fill="#3b2a63" class="cell" style="animation-delay:1.25s"/>
<rect x="170" y="90" width="13" height="11" rx="2.5" fill="#fb923c" class="cell" style="animation-delay:1.256s"/>
<rect x="187" y="0" width="13" height="11" rx="2.5" fill="#3b2a63" class="cell" style="animation-delay:1.262s"/>
<rect x="187" y="15" width="13" height="11" rx="2.5" fill="#1a1430" class="cell" style="animation-delay:1.268s"/>
<rect x="187" y="30" width="13" height="11" rx="2.5" fill="#1a1430" class="cell" style="animation-delay:1.274s"/>
<rect x="187" y="45" width="13" height="11" rx="2.5" fill="#6d3fa8" class="cell" style="animation-delay:1.28s"/>
<rect x="187" y="60" width="13" height="11" rx="2.5" fill="#1a1430" class="cell" style="animation-delay:1.286s"/>
<rect x="187" y="75" width="13" height="11" rx="2.5" fill="#6d3fa8" class="cell" style="animation-delay:1.292s"/>
<rect x="187" y="90" width="13" height="11" rx="2.5" fill="#fb923c" class="cell" style="animation-delay:1.298s"/>
<rect x="204" y="0" width="13" height="11" rx="2.5" fill="#3b2a63" class="cell" style="animation-delay:1.304s"/>
<rect x="204" y="15" width="13" height="11" rx="2.5" fill="#1a1430" class="cell" style="animation-delay:1.31s"/>
<rect x="204" y="30" width="13" height="11" rx="2.5" fill="#fbbf24" class="cell" style="animation-delay:1.316s"/>
<rect x="204" y="45" width="13" height="11" rx="2.5" fill="#6d3fa8" class="cell" style="animation-delay:1.322s"/>
<rect x="204" y="60" width="13" height="11" rx="2.5" fill="#1a1430" class="cell" style="animation-delay:1.328s"/>
<rect x="204" y="75" width="13" height="11" rx="2.5" fill="#1a1430" class="cell" style="animation-delay:1.334s"/>
<rect x="204" y="90" width="13" height="11" rx="2.5" fill="#1a1430" class="cell" style="animation-delay:1.34s"/>
<rect x="221" y="0" width="13" height="11" rx="2.5" fill="#6d3fa8" class="cell" style="animation-delay:1.346s"/>
<rect x="221" y="15" width="13" height="11" rx="2.5" fill="#a855f7" class="cell" style="animation-delay:1.352s"/>
<rect x="221" y="30" width="13" height="11" rx="2.5" fill="#3b2a63" class="cell" style="animation-delay:1.358s"/>
<rect x="221" y="45" width="13" height="11" rx="2.5" fill="#1a1430" class="cell" style="animation-delay:1.364s"/>
<rect x="221" y="60" width="13" height="11" rx="2.5" fill="#3b2a63" class="cell" style="animation-delay:1.37s"/>
<rect x="221" y="75" width="13" height="11" rx="2.5" fill="#fbbf24" class="cell" style="animation-delay:1.376s"/>
<rect x="221" y="90" width="13" height="11" rx="2.5" fill="#6d3fa8" class="cell" style="animation-delay:1.382s"/>
<rect x="238" y="0" width="13" height="11" rx="2.5" fill="#fbbf24" class="cell" style="animation-delay:1.388s"/>
<rect x="238" y="15" width="13" height="11" rx="2.5" fill="#fb923c" class="cell" style="animation-delay:1.394s"/>
<rect x="238" y="30" width="13" height="11" rx="2.5" fill="#1a1430" class="cell" style="animation-delay:1.4s"/>
<rect x="238" y="45" width="13" height="11" rx="2.5" fill="#a855f7" class="cell" style="animation-delay:1.406s"/>
<rect x="238" y="60" width="13" height="11" rx="2.5" fill="#a855f7" class="cell" style="animation-delay:1.412s"/>
<rect x="238" y="75" width="13" height="11" rx="2.5" fill="#6d3fa8" class="cell" style="animation-delay:1.418s"/>
<rect x="238" y="90" width="13" height="11" rx="2.5" fill="#1a1430" class="cell" style="animation-delay:1.424s"/>
<rect x="255" y="0" width="13" height="11" rx="2.5" fill="#6d3fa8" class="cell" style="animation-delay:1.43s"/>
<rect x="255" y="15" width="13" height="11" rx="2.5" fill="#1a1430" class="cell" style="animation-delay:1.436s"/>
<rect x="255" y="30" width="13" height="11" rx="2.5" fill="#3b2a63" class="cell" style="animation-delay:1.442s"/>
<rect x="255" y="45" width="13" height="11" rx="2.5" fill="#3b2a63" class="cell" style="animation-delay:1.448s"/>
<rect x="255" y="60" width="13" height="11" rx="2.5" fill="#fbbf24" class="cell" style="animation-delay:1.454s"/>
<rect x="255" y="75" width="13" height="11" rx="2.5" fill="#fb923c" class="cell" style="animation-delay:1.46s"/>
<rect x="255" y="90" width="13" height="11" rx="2.5" fill="#1a1430" class="cell" style="animation-delay:1.466s"/>
<rect x="272" y="0" width="13" height="11" rx="2.5" fill="#6d3fa8" class="cell" style="animation-delay:1.472s"/>
<rect x="272" y="15" width="13" height="11" rx="2.5" fill="#1a1430" class="cell" style="animation-delay:1.478s"/>
<rect x="272" y="30" width="13" height="11" rx="2.5" fill="#fb923c" class="cell" style="animation-delay:1.484s"/>
<rect x="272" y="45" width="13" height="11" rx="2.5" fill="#fb923c" class="cell" style="animation-delay:1.49s"/>
<rect x="272" y="60" width="13" height="11" rx="2.5" fill="#1a1430" class="cell" style="animation-delay:1.496s"/>
<rect x="272" y="75" width="13" height="11" rx="2.5" fill="#6d3fa8" class="cell" style="animation-delay:1.502s"/>
<rect x="272" y="90" width="13" height="11" rx="2.5" fill="#6d3fa8" class="cell" style="animation-delay:1.508s"/>
<rect x="289" y="0" width="13" height="11" rx="2.5" fill="#1a1430" class="cell" style="animation-delay:1.514s"/>
<rect x="289" y="15" width="13" height="11" rx="2.5" fill="#a855f7" class="cell" style="animation-delay:1.52s"/>
<rect x="289" y="30" width="13" height="11" rx="2.5" fill="#6d3fa8" class="cell" style="animation-delay:1.526s"/>
<rect x="289" y="45" width="13" height="11" rx="2.5" fill="#a855f7" class="cell" style="animation-delay:1.532s"/>
<rect x="289" y="60" width="13" height="11" rx="2.5" fill="#6d3fa8" class="cell" style="animation-delay:1.538s"/>
<rect x="289" y="75" width="13" height="11" rx="2.5" fill="#1a1430" class="cell" style="animation-delay:1.544s"/>
<rect x="289" y="90" width="13" height="11" rx="2.5" fill="#3b2a63" class="cell" style="animation-delay:1.55s"/>
<rect x="306" y="0" width="13" height="11" rx="2.5" fill="#1a1430" class="cell" style="animation-delay:1.556s"/>
<rect x="306" y="15" width="13" height="11" rx="2.5" fill="#fb923c" class="cell" style="animation-delay:1.562s"/>
<rect x="306" y="30" width="13" height="11" rx="2.5" fill="#fb923c" class="cell" style="animation-delay:1.568s"/>
<rect x="306" y="45" width="13" height="11" rx="2.5" fill="#fb923c" class="cell" style="animation-delay:1.574s"/>
<rect x="306" y="60" width="13" height="11" rx="2.5" fill="#3b2a63" class="cell" style="animation-delay:1.58s"/>
<rect x="306" y="75" width="13" height="11" rx="2.5" fill="#1a1430" class="cell" style="animation-delay:1.586s"/>
<rect x="306" y="90" width="13" height="11" rx="2.5" fill="#fb923c" class="cell" style="animation-delay:1.592s"/>
<rect x="323" y="0" width="13" height="11" rx="2.5" fill="#fbbf24" class="cell" style="animation-delay:1.598s"/>
<rect x="323" y="15" width="13" height="11" rx="2.5" fill="#1a1430" class="cell" style="animation-delay:1.604s"/>
<rect x="323" y="30" width="13" height="11" rx="2.5" fill="#3b2a63" class="cell" style="animation-delay:1.61s"/>
<rect x="323" y="45" width="13" height="11" rx="2.5" fill="#1a1430" class="cell" style="animation-delay:1.616s"/>
<rect x="323" y="60" width="13" height="11" rx="2.5" fill="#a855f7" class="cell" style="animation-delay:1.622s"/>
<rect x="323" y="75" width="13" height="11" rx="2.5" fill="#a855f7" class="cell" style="animation-delay:1.628s"/>
<rect x="323" y="90" width="13" height="11" rx="2.5" fill="#1a1430" class="cell" style="animation-delay:1.634s"/>
<rect x="340" y="0" width="13" height="11" rx="2.5" fill="#3b2a63" class="cell" style="animation-delay:1.64s"/>
<rect x="340" y="15" width="13" height="11" rx="2.5" fill="#6d3fa8" class="cell" style="animation-delay:1.646s"/>
<rect x="340" y="30" width="13" height="11" rx="2.5" fill="#1a1430" class="cell" style="animation-delay:1.652s"/>
<rect x="340" y="45" width="13" height="11" rx="2.5" fill="#fb923c" class="cell" style="animation-delay:1.658s"/>
<rect x="340" y="60" width="13" height="11" rx="2.5" fill="#3b2a63" class="cell" style="animation-delay:1.664s"/>
<rect x="340" y="75" width="13" height="11" rx="2.5" fill="#1a1430" class="cell" style="animation-delay:1.67s"/>
<rect x="340" y="90" width="13" height="11" rx="2.5" fill="#6d3fa8" class="cell" style="animation-delay:1.676s"/>
<rect x="357" y="0" width="13" height="11" rx="2.5" fill="#a855f7" class="cell" style="animation-delay:1.682s"/>
<rect x="357" y="15" width="13" height="11" rx="2.5" fill="#1a1430" class="cell" style="animation-delay:1.688s"/>
<rect x="357" y="30" width="13" height="11" rx="2.5" fill="#3b2a63" class="cell" style="animation-delay:1.694s"/>
<rect x="357" y="45" width="13" height="11" rx="2.5" fill="#fbbf24" class="cell" style="animation-delay:1.7s"/>
<rect x="357" y="60" width="13" height="11" rx="2.5" fill="#6d3fa8" class="cell" style="animation-delay:1.706s"/>
<rect x="357" y="75" width="13" height="11" rx="2.5" fill="#3b2a63" class="cell" style="animation-delay:1.712s"/>
<rect x="357" y="90" width="13" height="11" rx="2.5" fill="#6d3fa8" class="cell" style="animation-delay:1.718s"/>
<rect x="374" y="0" width="13" height="11" rx="2.5" fill="#1a1430" class="cell" style="animation-delay:1.724s"/>
<rect x="374" y="15" width="13" height="11" rx="2.5" fill="#1a1430" class="cell" style="animation-delay:1.73s"/>
<rect x="374" y="30" width="13" height="11" rx="2.5" fill="#3b2a63" class="cell" style="animation-delay:1.736s"/>
<rect x="374" y="45" width="13" height="11" rx="2.5" fill="#6d3fa8" class="cell" style="animation-delay:1.742s"/>
<rect x="374" y="60" width="13" height="11" rx="2.5" fill="#1a1430" class="cell" style="animation-delay:1.748s"/>
<rect x="374" y="75" width="13" height="11" rx="2.5" fill="#1a1430" class="cell" style="animation-delay:1.754s"/>
<rect x="374" y="90" width="13" height="11" rx="2.5" fill="#1a1430" class="cell" style="animation-delay:1.76s"/>
<rect x="391" y="0" width="13" height="11" rx="2.5" fill="#6d3fa8" class="cell" style="animation-delay:1.766s"/>
<rect x="391" y="15" width="13" height="11" rx="2.5" fill="#1a1430" class="cell" style="animation-delay:1.772s"/>
<rect x="391" y="30" width="13" height="11" rx="2.5" fill="#fb923c" class="cell" style="animation-delay:1.778s"/>
<rect x="391" y="45" width="13" height="11" rx="2.5" fill="#fb923c" class="cell" style="animation-delay:1.784s"/>
<rect x="391" y="60" width="13" height="11" rx="2.5" fill="#1a1430" class="cell" style="animation-delay:1.79s"/>
<rect x="391" y="75" width="13" height="11" rx="2.5" fill="#1a1430" class="cell" style="animation-delay:1.796s"/>
<rect x="391" y="90" width="13" height="11" rx="2.5" fill="#6d3fa8" class="cell" style="animation-delay:1.802s"/>
<rect x="408" y="0" width="13" height="11" rx="2.5" fill="#1a1430" class="cell" style="animation-delay:1.808s"/>
<rect x="408" y="15" width="13" height="11" rx="2.5" fill="#1a1430" class="cell" style="animation-delay:1.814s"/>
<rect x="408" y="30" width="13" height="11" rx="2.5" fill="#fb923c" class="cell" style="animation-delay:1.82s"/>
<rect x="408" y="45" width="13" height="11" rx="2.5" fill="#6d3fa8" class="cell" style="animation-delay:1.826s"/>
<rect x="408" y="60" width="13" height="11" rx="2.5" fill="#3b2a63" class="cell" style="animation-delay:1.832s"/>
<rect x="408" y="75" width="13" height="11" rx="2.5" fill="#a855f7" class="cell" style="animation-delay:1.838s"/>
<rect x="408" y="90" width="13" height="11" rx="2.5" fill="#a855f7" class="cell" style="animation-delay:1.844s"/>
<rect x="425" y="0" width="13" height="11" rx="2.5" fill="#1a1430" class="cell" style="animation-delay:1.85s"/>
<rect x="425" y="15" width="13" height="11" rx="2.5" fill="#1a1430" class="cell" style="animation-delay:1.856s"/>
<rect x="425" y="30" width="13" height="11" rx="2.5" fill="#3b2a63" class="cell" style="animation-delay:1.862s"/>
<rect x="425" y="45" width="13" height="11" rx="2.5" fill="#3b2a63" class="cell" style="animation-delay:1.868s"/>
<rect x="425" y="60" width="13" height="11" rx="2.5" fill="#3b2a63" class="cell" style="animation-delay:1.874s"/>
<rect x="425" y="75" width="13" height="11" rx="2.5" fill="#a855f7" class="cell" style="animation-delay:1.88s"/>
<rect x="425" y="90" width="13" height="11" rx="2.5" fill="#6d3fa8" class="cell" style="animation-delay:1.886s"/></g>
</g>

<!-- ═══════════ ROW 2 · stats strip ═══════════ -->
<g transform="translate(0,372)" class="rise" style="animation-delay:1.1s">
  <rect x="24" y="0" width="1232" height="64" rx="14" fill="#131024" stroke="#2b2148"/>
  <g class="mono" text-anchor="middle">
    <text x="130" y="30" font-size="20" font-weight="800" fill="#fb923c">1,977+</text><text x="130" y="50" font-size="10.5" fill="#8a7cb0">contributions / yr</text>
    <text x="335" y="30" font-size="20" font-weight="800" fill="#f472b6">1,365+</text><text x="335" y="50" font-size="10.5" fill="#8a7cb0">commits</text>
    <text x="540" y="30" font-size="20" font-weight="800" fill="#a855f7">351+</text><text x="540" y="50" font-size="10.5" fill="#8a7cb0">pull requests</text>
    <text x="745" y="30" font-size="20" font-weight="800" fill="#38bdf8">255+</text><text x="745" y="50" font-size="10.5" fill="#8a7cb0">code reviews</text>
    <text x="950" y="30" font-size="20" font-weight="800" fill="#34d399">12+</text><text x="950" y="50" font-size="10.5" fill="#8a7cb0">years experience</text>
    <text x="1150" y="30" font-size="20" font-weight="800" fill="#fbbf24">30+</text><text x="1150" y="50" font-size="10.5" fill="#8a7cb0">technologies</text>
  </g>
  <g stroke="#241d3f"><path d="M232 12 V52 M437 12 V52 M642 12 V52 M847 12 V52 M1052 12 V52"/></g>
</g>

<!-- ═══════════ ROW 3 · four cards ═══════════ -->
<!-- tech arsenal -->
<g transform="translate(24,460)" class="rise" style="animation-delay:1.3s">
  <rect width="296" height="396" rx="16" fill="#131024" stroke="#2b2148"/>
  <text x="20" y="34" class="sans" font-size="15" font-weight="700" fill="#f1e9ff">&#128736;&#65039; Tech Arsenal</text>
  <g class="mono" font-size="11" text-anchor="middle" fill="#c9b8ef">
    <rect x="20" y="54" width="80" height="30" rx="8" fill="#1c1633"/><text x="60" y="73">PHP</text>
    <rect x="108" y="54" width="80" height="30" rx="8" fill="#1c1633"/><text x="148" y="73">Laravel</text>
    <rect x="196" y="54" width="80" height="30" rx="8" fill="#1c1633"/><text x="236" y="73">Python</text>
    <rect x="20" y="92" width="80" height="30" rx="8" fill="#1c1633"/><text x="60" y="111">TypeScript</text>
    <rect x="108" y="92" width="80" height="30" rx="8" fill="#1c1633"/><text x="148" y="111">Node.js</text>
    <rect x="196" y="92" width="80" height="30" rx="8" fill="#1c1633"/><text x="236" y="111">React</text>
    <rect x="20" y="130" width="80" height="30" rx="8" fill="#1c1633"/><text x="60" y="149">AWS</text>
    <rect x="108" y="130" width="80" height="30" rx="8" fill="#1c1633"/><text x="148" y="149">Docker</text>
    <rect x="196" y="130" width="80" height="30" rx="8" fill="#1c1633"/><text x="236" y="149">Serverless</text>
    <rect x="20" y="168" width="80" height="30" rx="8" fill="#1c1633"/><text x="60" y="187">PostgreSQL</text>
    <rect x="108" y="168" width="80" height="30" rx="8" fill="#1c1633"/><text x="148" y="187">MongoDB</text>
    <rect x="196" y="168" width="80" height="30" rx="8" fill="#1c1633"/><text x="236" y="187">Redis</text>
    <rect x="20" y="206" width="80" height="30" rx="8" fill="#1c1633"/><text x="60" y="225">DynamoDB</text>
    <rect x="108" y="206" width="80" height="30" rx="8" fill="#1c1633"/><text x="148" y="225">SQS</text>
    <rect x="196" y="206" width="80" height="30" rx="8" fill="#1c1633"/><text x="236" y="225">RabbitMQ</text>
    <rect x="20" y="244" width="80" height="30" rx="8" fill="#1c1633"/><text x="60" y="263">GraphQL</text>
    <rect x="108" y="244" width="80" height="30" rx="8" fill="#1c1633"/><text x="148" y="263">Stripe</text>
    <rect x="196" y="244" width="80" height="30" rx="8" fill="#1c1633"/><text x="236" y="263">ElasticSearch</text>
    <rect x="20" y="282" width="80" height="30" rx="8" fill="#241a3a" stroke="#a855f7" stroke-opacity=".5"/><text x="60" y="301" fill="#c4b5fd">RAG</text>
    <rect x="108" y="282" width="80" height="30" rx="8" fill="#241a3a" stroke="#a855f7" stroke-opacity=".5"/><text x="148" y="301" fill="#c4b5fd">LLM</text>
    <rect x="196" y="282" width="80" height="30" rx="8" fill="#241a3a" stroke="#a855f7" stroke-opacity=".5"/><text x="236" y="301" fill="#c4b5fd">Agents</text>
  </g>
  <text x="20" y="352" class="mono" font-size="11" fill="#6d5a96">+ CI/CD &#183; observability &#183; cost optimization</text>
  <text x="20" y="374" class="mono" font-size="11" fill="#6d5a96">+ HLD/LLD reviews &#183; architecture governance</text>
</g>

<!-- experience timeline -->
<g transform="translate(332,460)" class="rise" style="animation-delay:1.45s">
  <rect width="296" height="396" rx="16" fill="#131024" stroke="#2b2148"/>
  <text x="20" y="34" class="sans" font-size="15" font-weight="700" fill="#f1e9ff">&#128188; Experience Timeline</text>
  <path d="M34 62 V360" stroke="#2b2148" stroke-width="2"/>
  <g class="sans">
    <circle cx="34" cy="76" r="6" fill="#fb923c" filter="url(#glow)"/>
    <text x="52" y="72" font-size="11" fill="#fb923c" class="mono">2022 &#8212; Present</text>
    <text x="52" y="92" font-size="13.5" font-weight="700" fill="#f1e9ff">Senior Engineering Manager</text>
    <text x="52" y="110" font-size="11" fill="#8a7cb0">Payments platform &amp; architecture at scale</text>
    <circle cx="34" cy="150" r="6" fill="#f472b6"/>
    <text x="52" y="146" font-size="11" fill="#f472b6" class="mono">2020 &#8212; 2022</text>
    <text x="52" y="166" font-size="13.5" font-weight="700" fill="#f1e9ff">Engineering Manager</text>
    <text x="52" y="184" font-size="11" fill="#8a7cb0">Built high-performing teams &amp; scalable systems</text>
    <circle cx="34" cy="224" r="6" fill="#a855f7"/>
    <text x="52" y="220" font-size="11" fill="#a855f7" class="mono">2017 &#8212; 2020</text>
    <text x="52" y="240" font-size="13.5" font-weight="700" fill="#f1e9ff">Tech Lead</text>
    <text x="52" y="258" font-size="11" fill="#8a7cb0">Architected &amp; developed core platform services</text>
    <circle cx="34" cy="298" r="6" fill="#38bdf8"/>
    <text x="52" y="294" font-size="11" fill="#38bdf8" class="mono">2014 &#8212; 2017</text>
    <text x="52" y="314" font-size="13.5" font-weight="700" fill="#f1e9ff">PHP Developer</text>
    <text x="52" y="332" font-size="11" fill="#8a7cb0">Started the journey with Laravel &amp; PHP</text>
  </g>
</g>

<!-- featured projects -->
<g transform="translate(640,460)" class="rise" style="animation-delay:1.6s">
  <rect width="296" height="396" rx="16" fill="#131024" stroke="#2b2148"/>
  <text x="20" y="34" class="sans" font-size="15" font-weight="700" fill="#f1e9ff">&#11088; Featured Projects</text>
  <text x="276" y="34" text-anchor="end" class="mono" font-size="10" fill="#6d5a96">View All</text>
  <g>
    <rect x="16" y="52" width="264" height="100" rx="12" fill="#1c1633"/>
    <rect x="30" y="68" width="34" height="34" rx="9" fill="#241a3a"/><text x="47" y="91" text-anchor="middle" font-size="16">&#129302;</text>
    <text x="76" y="80" class="sans" font-size="13.5" font-weight="700" fill="#f1e9ff">AI Agent Platform</text>
    <text x="76" y="98" class="sans" font-size="10.5" fill="#8a7cb0">Multi-agent platform &#183; RAG &amp; LLM evals</text>
    <g class="mono" font-size="9.5" text-anchor="middle" fill="#c4b5fd">
      <rect x="76" y="112" width="56" height="20" rx="6" fill="#241a3a"/><text x="104" y="126">Python</text>
      <rect x="140" y="112" width="46" height="20" rx="6" fill="#241a3a"/><text x="163" y="126">RAG</text>
    </g>
  </g>
  <g>
    <rect x="16" y="164" width="264" height="100" rx="12" fill="#1c1633"/>
    <rect x="30" y="180" width="34" height="34" rx="9" fill="#132542"/><text x="47" y="203" text-anchor="middle" font-size="16">&#128179;</text>
    <text x="76" y="192" class="sans" font-size="13.5" font-weight="700" fill="#f1e9ff">SequiPay</text>
    <text x="76" y="210" class="sans" font-size="10.5" fill="#8a7cb0">Payment automation &amp; KYC platform</text>
    <g class="mono" font-size="9.5" text-anchor="middle" fill="#7dd3fc">
      <rect x="76" y="224" width="46" height="20" rx="6" fill="#132542"/><text x="99" y="238">AWS</text>
      <rect x="130" y="224" width="52" height="20" rx="6" fill="#132542"/><text x="156" y="238">Stripe</text>
    </g>
  </g>
  <g>
    <rect x="16" y="276" width="264" height="100" rx="12" fill="#1c1633"/>
    <rect x="30" y="292" width="34" height="34" rx="9" fill="#0d2b1e"/><text x="47" y="315" text-anchor="middle" font-size="16">&#128737;&#65039;</text>
    <text x="76" y="304" class="sans" font-size="13.5" font-weight="700" fill="#f1e9ff">Worklio Automation</text>
    <text x="76" y="322" class="sans" font-size="10.5" fill="#8a7cb0">KYC automation &amp; compliance pipeline</text>
    <g class="mono" font-size="9.5" text-anchor="middle" fill="#6ee7b7">
      <rect x="76" y="336" width="78" height="20" rx="6" fill="#0d2b1e"/><text x="115" y="350">Serverless</text>
      <rect x="162" y="336" width="62" height="20" rx="6" fill="#0d2b1e"/><text x="193" y="350">Lambda</text>
    </g>
  </g>
</g>

<!-- performance + recent commits -->
<g transform="translate(948,460)" class="rise" style="animation-delay:1.75s">
  <rect width="308" height="160" rx="16" fill="#131024" stroke="#2b2148"/>
  <text x="20" y="34" class="sans" font-size="15" font-weight="700" fill="#f1e9ff">&#128200; Performance</text>
  <g transform="translate(22,42) scale(.52)"><g transform="translate(64,0)">
      <circle cx="0" cy="46" r="30" fill="none" stroke="#241d3f" stroke-width="7"/>
      <circle cx="0" cy="46" r="30" fill="none" stroke="#fb923c" stroke-width="7" stroke-linecap="round"
        stroke-dasharray="188.5" stroke-dashoffset="188.5" transform="rotate(-90 0 46)"
        style="animation:ringDraw 1.6s cubic-bezier(.4,0,.2,1) forwards 1s;--off:15.1px"/>
      <text x="0" y="52" text-anchor="middle" class="mono" font-size="15" font-weight="700" fill="#f1e9ff">92%</text>
      <text x="0" y="96" text-anchor="middle" class="mono" font-size="10.5" fill="#8a7cb0">quality</text>
    </g><g transform="translate(190,0)">
      <circle cx="0" cy="46" r="30" fill="none" stroke="#241d3f" stroke-width="7"/>
      <circle cx="0" cy="46" r="30" fill="none" stroke="#a855f7" stroke-width="7" stroke-linecap="round"
        stroke-dasharray="188.5" stroke-dashoffset="188.5" transform="rotate(-90 0 46)"
        style="animation:ringDraw 1.6s cubic-bezier(.4,0,.2,1) forwards 1s;--off:41.5px"/>
      <text x="0" y="52" text-anchor="middle" class="mono" font-size="15" font-weight="700" fill="#f1e9ff">78%</text>
      <text x="0" y="96" text-anchor="middle" class="mono" font-size="10.5" fill="#8a7cb0">velocity</text>
    </g><g transform="translate(316,0)">
      <circle cx="0" cy="46" r="30" fill="none" stroke="#241d3f" stroke-width="7"/>
      <circle cx="0" cy="46" r="30" fill="none" stroke="#38bdf8" stroke-width="7" stroke-linecap="round"
        stroke-dasharray="188.5" stroke-dashoffset="188.5" transform="rotate(-90 0 46)"
        style="animation:ringDraw 1.6s cubic-bezier(.4,0,.2,1) forwards 1s;--off:67.9px"/>
      <text x="0" y="52" text-anchor="middle" class="mono" font-size="15" font-weight="700" fill="#f1e9ff">64%</text>
      <text x="0" y="96" text-anchor="middle" class="mono" font-size="10.5" fill="#8a7cb0">coverage</text>
    </g><g transform="translate(442,0)">
      <circle cx="0" cy="46" r="30" fill="none" stroke="#241d3f" stroke-width="7"/>
      <circle cx="0" cy="46" r="30" fill="none" stroke="#34d399" stroke-width="7" stroke-linecap="round"
        stroke-dasharray="188.5" stroke-dashoffset="188.5" transform="rotate(-90 0 46)"
        style="animation:ringDraw 1.6s cubic-bezier(.4,0,.2,1) forwards 1s;--off:17.0px"/>
      <text x="0" y="52" text-anchor="middle" class="mono" font-size="15" font-weight="700" fill="#f1e9ff">91%</text>
      <text x="0" y="96" text-anchor="middle" class="mono" font-size="10.5" fill="#8a7cb0">uptime</text>
    </g></g>
  <g transform="translate(0,0)"></g>
</g>
<g transform="translate(948,634)" class="rise" style="animation-delay:1.9s">
  <rect width="308" height="222" rx="16" fill="#131024" stroke="#2b2148"/>
  <text x="20" y="34" class="sans" font-size="15" font-weight="700" fill="#f1e9ff">&#128220; Recent Commits</text>
  <text x="288" y="34" text-anchor="end" class="mono" font-size="10" fill="#6d5a96">View All</text>
  <g class="mono" font-size="11">
    <circle cx="26" cy="60" r="3" fill="#34d399"/><text x="38" y="64" fill="#c9b8ef">feat: add agent memory module</text><text x="288" y="64" text-anchor="end" fill="#6d5a96">a35d17b</text>
    <circle cx="26" cy="92" r="3" fill="#fb923c"/><text x="38" y="96" fill="#c9b8ef">fix: resolve queue timeout issue</text><text x="288" y="96" text-anchor="end" fill="#6d5a96">8ee7f4a</text>
    <circle cx="26" cy="124" r="3" fill="#a855f7"/><text x="38" y="128" fill="#c9b8ef">chore: update dependencies</text><text x="288" y="128" text-anchor="end" fill="#6d5a96">7c1d19b</text>
    <circle cx="26" cy="156" r="3" fill="#38bdf8"/><text x="38" y="160" fill="#c9b8ef">test: integrate new LLM provider</text><text x="288" y="160" text-anchor="end" fill="#6d5a96">10b5c2e</text>
    <circle cx="26" cy="188" r="3" fill="#f472b6"/><text x="38" y="192" fill="#c9b8ef">docs: update deployment guide</text><text x="288" y="192" text-anchor="end" fill="#6d5a96">b8a91c3</text>
  </g>
</g>
</svg>